<svg xmlns="http://www.w3.org/2000/svg" viewBox="0 0 200 200" width="200" height="200">
  <rect x="24" y="38" width="152" height="138" rx="16" fill="#fff"/>
  <rect x="24" y="38" width="152" height="42" rx="16" fill="#4285F4"/>
  <rect x="24" y="64" width="152" height="16" fill="#4285F4"/>
  <circle cx="72" cy="44" r="8" fill="#EA4335"/>
  <rect x="68" y="20" width="8" height="32" rx="4" fill="#EA4335"/>
  <circle cx="128" cy="44" r="8" fill="#EA4335"/>
  <rect x="124" y="20" width="8" height="32" rx="4" fill="#EA4335"/>
  <rect x="52" y="100" width="28" height="8" rx="2" fill="#34A853"/>
  <rect x="52" y="120" width="28" height="8" rx="2" fill="#FBBC04"/>
  <rect x="52" y="140" width="28" height="8" rx="2" fill="#EA4335"/>
  <rect x="92" y="100" width="28" height="8" rx="2" fill="#4285F4"/>
  <rect x="92" y="120" width="28" height="8" rx="2" fill="#34A853"/>
  <rect x="92" y="140" width="28" height="8" rx="2" fill="#FBBC04"/>
  <rect x="132" y="100" width="28" height="8" rx="2" fill="#EA4335"/>
  <rect x="132" y="120" width="28" height="8" rx="2" fill="#4285F4"/>
</svg>
